#!OML:ASF I:\Actors\actors\Patient Classification 1\Patient 1\Session 1\Subject1.ASF
:FULLY-SPECIFIED
:DEGREES
922
root 1.00003 17.5692 7.97849 11.1549 21.6941 -7.75845
lowerback 5.65456 7.41967 0.09372
upperback -10.912 9.98612 -2.56428
thorax -14.6925 4.58102 -4.6894
lowerneck -12.2997 -10.0904 -5.55013
upperneck 11.0542 -14.6387 13.3044
head 6.82489 -6.32838 3.62443
rclavicle 5.26282e-014 5.40694e-014
rhumerus 25.2678 -1.22035 -94.1964
rradius 53.9509
rwrist 47.5798
rhand -34.3001 -50.7234
rfingers 7.12502
rthumb -7.46928 -80.5716
lclavicle 5.26282e-014 5.40694e-014
lhumerus -42.9225 -22.5345 93.1452
lradius 74.1538
lwrist 14.7077
lhand -26.7485 -21.9579
lfingers 7.12502
lthumb -0.177174 8.02179
rfemur 1.76477 30.8623 21.9769
rtibia -2.49962
rfoot -41.9534 -46.3542
rtoes 29.9833
lfemur -7.68476 -44.5566 -9.39336
ltibia -4.92591
lfoot -0.0917334 35.0628
ltoes -8.33195
923
root 1.00304 17.5668 7.97116 11.1606 21.3678 -7.72434
lowerback 5.69377 7.43969 0.0967584
upperback -10.9523 10.0172 -2.54533
thorax -14.7682 4.59244 -4.68782
lowerneck -12.2277 -10.0665 -5.46851
upperneck 11.1969 -14.6083 13.1033
head 6.83149 -6.32353 3.55455
rclavicle -1.70955e-014 -1.27222e-014
rhumerus 24.9412 -1.42526 -94.5353
rradius 53.1065
rwrist 47.7639
rhand -32.7505 -50.8419
rfingers 7.12502
rthumb -5.97329 -80.7377
lclavicle -1.70955e-014 -1.27222e-014
lhumerus -43.1608 -22.9188 93.1724
lradius 74.0604
lwrist 14.9388
lhand -26.6641 -21.5106
lfingers 7.12502
lthumb -0.0956771 8.46913
rfemur 1.65987 30.7998 21.8279
rtibia -2.45964
rfoot -41.3214 -46.3111
rtoes 29.5117
lfemur -7.53796 -44.6619 -9.53243
ltibia -4.96603
lfoot -0.124856 35.4699
ltoes -8.2221
924
root 1.00647 17.5642 7.96645 10.9934 21.0034 -7.80743
lowerback 5.85527 7.51493 0.193937
upperback -10.9834 10.1389 -2.50191
thorax -14.893 4.63399 -4.74339
lowerneck -12.1361 -10.1135 -5.61947
upperneck 11.3689 -14.6748 13.1134
head 6.88879 -6.3579 3.57439
rclavicle 1.88845e-015 0
rhumerus 24.5876 -1.97015 -94.987
rradius 52.1594
rwrist 46.4794
rhand -31.1318 -51.237
rfingers 7.12502
rthumb -4.41042 -81.171
lclavicle 1.88845e-015 0
lhumerus -43.3712 -23.2186 93.2446
lradius 73.93
lwrist 15.0939
lhand -26.4147 -21.1462
lfingers 7.12502
lthumb 0.145241 8.83346
rfemur 1.73144 30.7893 21.9026
rtibia -2.41334
rfoot -40.6638 -46.2621
rtoes 28.7543
lfemur -7.10199 -44.9121 -9.71219
ltibia -5.08724
lfoot -0.174908 36.0573
ltoes -7.76704
925
root 1.00784 17.5613 7.96213 10.8643 20.667 -7.79613
lowerback 5.79313 7.57133 0.152917
upperback -10.8463 10.2086 -2.45387
thorax -14.699 4.68389 -4.65196
lowerneck -12.0884 -10.1469 -5.75052
upperneck 11.2398 -14.7058 13.2539
head 6.86415 -6.37545 3.6378
rclavicle -1.16388e-013 9.54166e-015
rhumerus 24.5161 -2.81726 -95.6867
rradius 51.217
rwrist 44.788
rhand -30.0521 -51.5182
rfingers 7.12502
rthumb -3.3678 -81.4714
lclavicle -1.16388e-013 9.54166e-015
lhumerus -43.2117 -23.2854 93.2041
lradius 73.8047
lwrist 15.1512
lhand -26.1961 -20.9059
lfingers 7.12502
lthumb 0.356341 9.07355
rfemur 1.83442 30.8853 21.9056
rtibia -2.39283
rfoot -40.1774 -46.3055
rtoes 28.0662
lfemur -6.71007 -44.9857 -9.988
ltibia -5.16687
lfoot -0.228128 36.4325
ltoes -7.26087
926
root 1.00869 17.5589 7.95668 10.7835 20.3863 -7.71733
lowerback 5.8001 7.62532 -0.00118103
upperback -10.7553 10.2599 -2.43032
thorax -14.6238 4.72904 -4.54438
lowerneck -12.0962 -10.204 -5.83865
upperneck 11.1782 -14.7869 13.4098
head 6.87414 -6.40805 3.6899
rclavicle -5.33737e-014 -1.27222e-014
rhumerus 24.2679 -3.79964 -96.3002
rradius 50.5971
rwrist 43.5823
rhand -29.8618 -51.5882
rfingers 7.12502
rthumb -3.18395 -81.5442
lclavicle -5.33737e-014 -1.27222e-014
lhumerus -43.109 -23.3041 93.1944
lradius 73.7628
lwrist 15.2459
lhand -26.0107 -20.9048
lfingers 7.12502
lthumb 0.535374 9.07427
rfemur 1.9215 30.9939 21.8299
rtibia -2.38902
rfoot -39.884 -46.3277
rtoes 27.8983
lfemur -6.42008 -44.982 -10.2917
ltibia -5.19076
lfoot -0.288302 36.6894
ltoes -7.05781
927
root 1.01055 17.5587 7.95005 10.7312 20.172 -7.69923
lowerback 5.79642 7.68594 -0.13466
upperback -10.6834 10.3256 -2.39691
thorax -14.5631 4.77912 -4.44023
lowerneck -12.2554 -10.3134 -5.86604
upperneck 11.2045 -14.9412 13.4585
head 6.93205 -6.47055 3.68144
rclavicle 1.98785e-016 -7.95139e-015
rhumerus 23.8258 -4.08803 -95.9234
rradius 50.584
rwrist 42.4569
rhand -30.2949 -51.8425
rfingers 7.12502
rthumb -3.60226 -81.7918
lclavicle 1.98785e-016 -7.95139e-015
lhumerus -42.9901 -23.3353 93.2156
lradius 73.7892
lwrist 15.3832
lhand -25.8903 -21.0999
lfingers 7.12502
lthumb 0.651733 8.87884
rfemur 1.92271 31.024 21.7732
rtibia -2.36087
rfoot -39.7517 -46.182
rtoes 28.105
lfemur -6.24365 -45.0986 -10.4419
ltibia -5.20739
lfoot -0.44671 37.0243
ltoes -6.70733
928
root 1.01249 17.5587 7.94417 10.7269 20.0884 -7.73536
lowerback 5.70732 7.70779 -0.252737
upperback -10.6054 10.3444 -2.33508
thorax -14.4464 4.81096 -4.29001
lowerneck -12.4152 -10.451 -5.91781
upperneck 11.1137 -15.1133 13.5
head 6.95566 -6.54841 3.67273
rclavicle 5.31749e-014 7.95139e-015
rhumerus 23.3457 -4.0747 -95.1837
rradius 51.0167
rwrist 42.0218
rhand -30.7074 -52.1677
rfingers 7.12502
rthumb -4.00056 -82.1098
lclavicle 5.31749e-014 7.95139e-015
lhumerus -42.842 -23.2457 93.2302
lradius 73.8868
lwrist 15.3942
lhand -25.8664 -21.221
lfingers 7.12502
lthumb 0.674751 8.75763
rfemur 1.84215 30.9732 21.7497
rtibia -2.31192
rfoot -39.716 -46.0507
rtoes 28.2347
lfemur -6.24169 -45.1839 -10.4086
ltibia -5.21148
lfoot -0.506677 37.1776
ltoes -6.32399
929
root 1.01667 17.5583 7.9386 10.7957 20.1043 -7.72232
lowerback 5.60139 7.67387 -0.382864
upperback -10.5505 10.2876 -2.26896
thorax -14.3539 4.80761 -4.11695
lowerneck -12.4925 -10.5777 -6.04929
upperneck 10.9257 -15.2501 13.571
head 6.93912 -6.61882 3.69458
rclavicle -4.35338e-014 5.56597e-014
rhumerus 22.9417 -4.09623 -94.6598
rradius 51.6886
rwrist 42.149
rhand -30.9929 -52.51
rfingers 7.12502
rthumb -4.27629 -82.4468
lclavicle -4.35338e-014 5.56597e-014
lhumerus -42.7649 -22.9503 93.2327
lradius 74.0631
lwrist 15.3045
lhand -25.8637 -21.2747
lfingers 7.12502
lthumb 0.677341 8.70394
rfemur 1.70786 30.8121 21.6402
rtibia -2.2915
rfoot -39.5214 -46.0477
rtoes 28.0403
lfemur -6.38915 -45.2471 -10.3482
ltibia -5.17129
lfoot -0.50634 37.1832
ltoes -6.02977
930
root 1.02408 17.5583 7.93206 10.9155 20.1576 -7.70475
lowerback 5.5138 7.59144 -0.41701
upperback -10.544 10.178 -2.21113
thorax -14.3134 4.76614 -4.00321
lowerneck -12.4728 -10.6533 -6.17788
upperneck 10.699 -15.3031 13.5745
head 6.87859 -6.6608 3.71091
rclavicle -1.98785e-016 -2.06736e-014
rhumerus 22.6563 -3.99256 -94.2206
rradius 52.5421
rwrist 41.9058
rhand -31.2549 -52.717
rfingers 7.12502
rthumb -4.52929 -82.6486
lclavicle -1.98785e-016 -2.06736e-014
lhumerus -42.8571 -22.5164 93.2024
lradius 74.3141
lwrist 15.3371
lhand -26.0149 -21.3466
lfingers 7.12502
lthumb 0.531344 8.6325
rfemur 1.52625 30.6289 21.4834
rtibia -2.31357
rfoot -39.1535 -46.155
rtoes 27.573
lfemur -6.63302 -45.3886 -10.2359
ltibia -5.10937
lfoot -0.588694 37.2626
ltoes -5.76585
931
root 1.03108 17.5586 7.92679 11.0211 20.2374 -7.75089
lowerback 5.44157 7.476 -0.328809
upperback -10.5742 10.0386 -2.16546
thorax -14.3022 4.69544 -3.96818
lowerneck -12.3908 -10.6785 -6.13675
upperneck 10.4848 -15.2933 13.4116
head 6.7769 -6.68092 3.66116
rclavicle 7.12146e-014 -4.77083e-015
rhumerus 22.4919 -3.93767 -93.979
rradius 53.542
rwrist 41.4326
rhand -31.4174 -52.7361
rfingers 7.12502
rthumb -4.68619 -82.6643
lclavicle 7.12146e-014 -4.77083e-015
lhumerus -43.0748 -22.0685 93.0902
lradius 74.5626
lwrist 15.4927
lhand -26.3168 -21.4147
lfingers 7.12502
lthumb 0.239771 8.56493
rfemur 1.39102 30.6722 21.4324
rtibia -2.35381
rfoot -39.2166 -46.2821
rtoes 27.4425
lfemur -6.88894 -45.5093 -10.0245
ltibia -5.07856
lfoot -0.607122 37.3375
ltoes -5.61993
